HIERARCHY
ROOT Hips
{
	OFFSET 0.000000 103.266502 0.000000
	CHANNELS 6 Xposition Yposition Zposition Xrotation Yrotation Zrotation 
	JOINT Spine
	{
		OFFSET -0.002400 12.777504 0.315300
		CHANNELS 3 Xrotation Yrotation Zrotation
		JOINT Spine1
		{
			OFFSET -0.002067 5.816869 0.032633
			CHANNELS 3 Xrotation Yrotation Zrotation
			JOINT Spine1_split
			{
				OFFSET -0.002067 5.816869 0.032633
				CHANNELS 3 Xrotation Yrotation Zrotation
				JOINT Spine2
				{
					OFFSET -0.002067 5.816869 0.032633
					CHANNELS 3 Xrotation Yrotation Zrotation
					JOINT Neck
					{
						OFFSET -0.003700 21.199493 -0.826900
						CHANNELS 3 Xrotation Yrotation Zrotation
						JOINT Head
						{
							OFFSET 0.000000 20.442200 4.834800
							CHANNELS 3 Xrotation Yrotation Zrotation
							JOINT HeadTop_End
							{
								OFFSET 0.000000 34.668396 4.968400
								CHANNELS 3 Xrotation Yrotation Zrotation
								End Site
								{
									OFFSET 0.000000 0.000000 0.000000
								}
							}
						}
					}
					JOINT LeftShoulder
					{
						OFFSET 3.288150 8.794197 -1.372250
						CHANNELS 3 Xrotation Yrotation Zrotation
						JOINT LeftShoulder_split
						{
							OFFSET 3.288150 8.794197 -1.372250
							CHANNELS 3 Xrotation Yrotation Zrotation
							JOINT LeftArm
							{
								OFFSET 11.953299 -2.279007 -0.146200
								CHANNELS 3 Xrotation Yrotation Zrotation
								JOINT LeftForeArm
								{
									OFFSET 18.448900 0.000000 0.000000
									CHANNELS 3 Xrotation Yrotation Zrotation
									JOINT LeftHand
									{
										OFFSET 29.527798 0.000000 0.000000
										CHANNELS 3 Xrotation Yrotation Zrotation
										JOINT LeftHandThumb1
										{
											OFFSET 10.739754 -2.369614 9.225399
											CHANNELS 3 Xrotation Yrotation Zrotation
											JOINT LeftHandThumb2
											{
												OFFSET 4.926170 -2.844131 2.844125
												CHANNELS 3 Xrotation Yrotation Zrotation
												JOINT LeftHandThumb3
												{
													OFFSET 4.614891 -2.664413 2.664409
													CHANNELS 3 Xrotation Yrotation Zrotation
													JOINT LeftHandThumb4
													{
														OFFSET 4.432465 -2.559082 2.559083
														CHANNELS 3 Xrotation Yrotation Zrotation
														End Site
														{
															OFFSET 0.000000 0.000000 0.000000
														}
													}
												}
											}
										}
										JOINT LeftHandIndex1
										{
											OFFSET 26.467674 0.187653 6.405298
											CHANNELS 3 Xrotation Yrotation Zrotation
											JOINT LeftHandIndex2
											{
												OFFSET 8.792900 0.000000 0.000000
												CHANNELS 3 Xrotation Yrotation Zrotation
												JOINT LeftHandIndex3
												{
													OFFSET 10.075203 0.000000 0.000000
													CHANNELS 3 Xrotation Yrotation Zrotation
													End Site
													{
														OFFSET 0.000000 0.000000 0.000000
													}
												}
											}
										}
										JOINT LeftHandMiddle1
										{
											OFFSET 25.764404 0.000000 0.000000
											CHANNELS 3 Xrotation Yrotation Zrotation
											JOINT LeftHandMiddle2
											{
												OFFSET 9.393974 0.000000 0.000000
												CHANNELS 3 Xrotation Yrotation Zrotation
												JOINT LeftHandMiddle3
												{
													OFFSET 10.771950 0.000000 0.000000
													CHANNELS 3 Xrotation Yrotation Zrotation
													End Site
													{
														OFFSET 0.000000 0.000000 0.000000
													}
												}
											}
										}
										JOINT LeftHandRing1
										{
											OFFSET 24.660927 0.144547 -6.225808
											CHANNELS 3 Xrotation Yrotation Zrotation
											JOINT LeftHandRing2
											{
												OFFSET 9.393799 0.000000 0.000000
												CHANNELS 3 Xrotation Yrotation Zrotation
												JOINT LeftHandRing3
												{
													OFFSET 9.928497 0.000000 0.000000
													CHANNELS 3 Xrotation Yrotation Zrotation
													End Site
													{
														OFFSET 0.000000 0.000000 0.000000
													}
												}
											}
										}
										JOINT LeftHandPinky1
										{
											OFFSET 23.655350 0.125290 -12.815412
											CHANNELS 3 Xrotation Yrotation Zrotation
											JOINT LeftHandPinky2
											{
												OFFSET 8.425102 0.000000 0.000000
												CHANNELS 3 Xrotation Yrotation Zrotation
												JOINT LeftHandPinky3
												{
													OFFSET 8.147003 0.000000 0.000000
													CHANNELS 3 Xrotation Yrotation Zrotation
													End Site
													{
														OFFSET 0.000000 0.000000 0.000000
													}
												}
											}
										}
									}
								}
							}
						}
					}
					JOINT RightShoulder
					{
						OFFSET -3.249400 8.794197 -1.372250
						CHANNELS 3 Xrotation Yrotation Zrotation
						JOINT RightShoulder_split
						{
							OFFSET -3.249400 8.794197 -1.372250
							CHANNELS 3 Xrotation Yrotation Zrotation
							JOINT RightArm
							{
								OFFSET -11.953299 -2.279007 -0.146200
								CHANNELS 3 Xrotation Yrotation Zrotation
								JOINT RightForeArm
								{
									OFFSET -18.448900 0.000000 0.000000
									CHANNELS 3 Xrotation Yrotation Zrotation
									JOINT RightHand
									{
										OFFSET -29.527802 0.000000 0.000000
										CHANNELS 3 Xrotation Yrotation Zrotation
										JOINT RightHandThumb1
										{
											OFFSET -10.739754 -2.369614 9.225399
											CHANNELS 3 Xrotation Yrotation Zrotation
											JOINT RightHandThumb2
											{
												OFFSET -4.926170 -2.844131 2.844125
												CHANNELS 3 Xrotation Yrotation Zrotation
												JOINT RightHandThumb3
												{
													OFFSET -4.614891 -2.664413 2.664409
													CHANNELS 3 Xrotation Yrotation Zrotation
													JOINT RightHandThumb4
													{
														OFFSET -4.432465 -2.559082 2.559083
														CHANNELS 3 Xrotation Yrotation Zrotation
														End Site
														{
															OFFSET 0.000000 0.000000 0.000000
														}
													}
												}
											}
										}
										JOINT RightHandIndex1
										{
											OFFSET -26.467674 0.187653 6.405298
											CHANNELS 3 Xrotation Yrotation Zrotation
											JOINT RightHandIndex2
											{
												OFFSET -8.792900 0.000000 0.000000
												CHANNELS 3 Xrotation Yrotation Zrotation
												JOINT RightHandIndex3
												{
													OFFSET -10.075203 0.000000 0.000000
													CHANNELS 3 Xrotation Yrotation Zrotation
													End Site
													{
														OFFSET 0.000000 0.000000 0.000000
													}
												}
											}
										}
										JOINT RightHandMiddle1
										{
											OFFSET -25.764404 0.000000 0.000000
											CHANNELS 3 Xrotation Yrotation Zrotation
											JOINT RightHandMiddle2
											{
												OFFSET -9.393974 0.000000 0.000000
												CHANNELS 3 Xrotation Yrotation Zrotation
												JOINT RightHandMiddle3
												{
													OFFSET -10.771950 0.000000 0.000000
													CHANNELS 3 Xrotation Yrotation Zrotation
													End Site
													{
														OFFSET 0.000000 0.000000 0.000000
													}
												}
											}
										}
										JOINT RightHandRing1
										{
											OFFSET -24.660927 0.144547 -6.225808
											CHANNELS 3 Xrotation Yrotation Zrotation
											JOINT RightHandRing2
											{
												OFFSET -9.393799 0.000000 0.000000
												CHANNELS 3 Xrotation Yrotation Zrotation
												JOINT RightHandRing3
												{
													OFFSET -9.928497 0.000000 0.000000
													CHANNELS 3 Xrotation Yrotation Zrotation
													End Site
													{
														OFFSET 0.000000 0.000000 0.000000
													}
												}
											}
										}
										JOINT RightHandPinky1
										{
											OFFSET -23.655350 0.125290 -12.815412
											CHANNELS 3 Xrotation Yrotation Zrotation
											JOINT RightHandPinky2
											{
												OFFSET -8.425102 0.000000 0.000000
												CHANNELS 3 Xrotation Yrotation Zrotation
												JOINT RightHandPinky3
												{
													OFFSET -8.147003 0.000000 0.000000
													CHANNELS 3 Xrotation Yrotation Zrotation
													End Site
													{
														OFFSET 0.000000 0.000000 0.000000
													}
												}
											}
										}
									}
								}
							}
						}
					}
				}
			}
		}
	}
	JOINT LeftUpLeg
	{
		OFFSET 11.394100 -6.187798 -0.413800
		CHANNELS 3 Xrotation Yrotation Zrotation
		JOINT LeftLeg
		{
			OFFSET 0.430247 -32.302673 3.732800
			CHANNELS 3 Xrotation Yrotation Zrotation
			JOINT LeftFoot
			{
				OFFSET -0.430247 -48.264931 -6.423300
				CHANNELS 3 Xrotation Yrotation Zrotation
				JOINT LeftToeBase
				{
					OFFSET 4.230900 -16.068199 23.438400
					CHANNELS 3 Xrotation Yrotation Zrotation
					JOINT LeftToe_End
					{
						OFFSET 4.510700 0.695400 19.974600
						CHANNELS 3 Xrotation Yrotation Zrotation
						End Site
						{
							OFFSET 0.000000 0.000000 0.000000
						}
					}
				}
			}
		}
	}
	JOINT RightUpLeg
	{
		OFFSET -11.333700 -6.187798 -0.413800
		CHANNELS 3 Xrotation Yrotation Zrotation
		JOINT RightLeg
		{
			OFFSET -0.430392 -32.302628 3.733000
			CHANNELS 3 Xrotation Yrotation Zrotation
			JOINT RightFoot
			{
				OFFSET 0.430392 -48.264973 -6.423500
				CHANNELS 3 Xrotation Yrotation Zrotation
				JOINT RightToeBase
				{
					OFFSET -4.230900 -16.068199 23.438400
					CHANNELS 3 Xrotation Yrotation Zrotation
					JOINT RightToe_End
					{
						OFFSET -4.510700 0.695400 19.974600
						CHANNELS 3 Xrotation Yrotation Zrotation
						End Site
						{
							OFFSET 0.000000 0.000000 0.000000
						}
					}
				}
			}
		}
	}
}
MOTION
Frames: 5
Frame Time: 0.016667
10.658287 195.603333 69.268517 6.083273 18.573236 -0.493503 7.334270 -1.811642 -3.896039 14.411475 -2.597691 1.282299 0.000000 0.000000 0.000000 14.393225 -2.607809 1.534270 -3.431909 0.659720 -7.971162 -4.476598 -10.464169 13.497319 0.000000 0.000000 0.000000 -1.645772 11.892282 6.117614 0.000000 0.000000 0.000000 -105.464398 -55.286659 -116.659030 0.000722 -92.898892 0.000732 -8.263633 -7.356835 2.186923 -3.500407 23.141888 9.972918 -2.408874 12.775502 10.381921 -3.572561 4.191491 6.966325 -0.000000 -0.000000 -0.000001 0.080930 1.054714 -8.775051 0.139280 1.380632 -11.520116 0.000001 -0.000001 0.000000 0.080638 1.052806 -8.759063 0.139653 1.382530 -11.536114 -0.000004 0.000001 -0.000001 0.080929 1.054715 -8.775049 0.139283 1.380633 -11.520119 -0.000000 0.000000 0.000001 0.683448 5.064140 -8.296813 0.133616 -2.674901 -12.020600 0.000003 0.000000 0.000001 2.075049 14.947587 1.840491 0.000000 0.000000 0.000000 -36.947300 40.337564 63.095047 0.000004 48.043824 0.000018 31.938948 2.596818 0.748845 -7.605220 -2.521690 -16.077616 4.602793 -15.232222 -8.617242 -1.023795 -3.032499 -6.344388 0.000001 0.000000 -0.000000 0.672568 -2.988281 25.363202 0.151858 -1.448123 11.972213 0.000000 0.000003 -0.000001 0.672565 -2.988282 25.363201 0.151869 -1.448120 11.972220 -0.000001 -0.000000 0.000000 0.672565 -2.988279 25.363201 0.151858 -1.448120 11.972211 -0.000002 0.000001 -0.000000 0.672566 -2.988283 25.363202 0.151860 -1.448121 11.972212 -0.000001 0.000001 0.000000 -43.859964 20.090120 12.817232 57.806206 -2.598243 -0.055833 14.687256 -1.706491 -13.013602 0.000002 -0.000020 -0.000004 0.000002 -0.000002 -0.000000 -51.855261 2.867856 -19.268997 24.130881 8.499256 1.010968 14.898325 19.212805 24.457716 -0.000005 -0.000005 0.000002 -0.000000 0.000000 0.000000 
10.795575 192.691895 71.959183 5.020787 18.379622 0.000889 7.373433 -1.671793 -3.924915 14.383883 -2.380559 1.213554 0.000000 0.000000 0.000000 14.364187 -2.405677 1.448309 -3.302234 0.547480 -7.776375 -3.709832 -10.667864 13.127589 -0.000001 -0.000000 -0.000000 -1.522765 11.317941 5.579483 0.000000 0.000000 0.000000 -102.529383 -55.782985 -113.588771 0.000908 -91.991829 0.001020 -9.879199 -6.284504 1.313724 -3.500367 23.141765 9.972877 -2.408834 12.775493 10.381848 -3.572539 4.191466 6.966299 0.000000 0.000000 0.000001 0.080935 1.054714 -8.774991 0.139267 1.380625 -11.520026 -0.000002 -0.000000 -0.000000 0.080635 1.052805 -8.759001 0.139662 1.382515 -11.536036 -0.000001 0.000001 -0.000001 0.080936 1.054712 -8.774993 0.139273 1.380626 -11.520034 0.000002 0.000000 0.000001 0.683431 5.064140 -8.296745 0.133625 -2.674910 -12.020526 -0.000005 0.000001 -0.000001 2.084715 14.908510 1.923961 0.000000 0.000000 0.000000 -37.666127 40.172591 63.297733 0.000006 48.302688 -0.000019 32.519408 2.624580 1.993024 -7.604272 -2.522133 -16.076186 4.602792 -15.232177 -8.617182 -1.023791 -3.032472 -6.344363 0.000001 0.000001 0.000002 0.672569 -2.988272 25.363025 0.151861 -1.448094 11.972123 -0.000001 -0.000000 0.000000 0.672566 -2.988255 25.363016 0.151852 -1.448108 11.972135 -0.000002 0.000001 0.000000 0.672569 -2.988270 25.363023 0.151859 -1.448093 11.972125 -0.000002 0.000000 0.000000 0.672568 -2.988273 25.363018 0.151858 -1.448094 11.972125 -0.000002 -0.000001 0.000000 -42.742392 20.136624 12.438811 56.596901 -1.901429 -0.024014 15.710016 -1.986279 -12.926695 0.000005 -0.000023 0.000006 0.000002 -0.000002 -0.000000 -49.923430 2.350475 -19.275101 24.017266 8.137873 1.059005 16.262021 20.101102 23.528916 0.000001 0.000006 -0.000007 0.000000 0.000001 -0.000000 
10.936757 189.520691 74.673676 3.934142 18.063649 0.483907 7.400331 -1.520733 -3.938433 14.331759 -2.196023 1.072488 0.000000 0.000000 0.000000 14.312120 -2.231720 1.291072 -3.139353 0.436491 -7.492977 -2.915439 -10.754767 12.844840 0.000002 0.000000 0.000000 -1.447304 10.959917 5.211209 0.000000 0.000000 0.000000 -99.827702 -56.207204 -110.766728 0.030755 -90.695814 0.030561 -11.177058 -5.296994 0.456578 -3.500324 23.141567 9.972821 -2.408773 12.775440 10.381730 -3.572513 4.191458 6.966248 -0.000001 0.000000 0.000001 0.080936 1.054700 -8.774899 0.139265 1.380614 -11.519917 0.000000 -0.000000 0.000001 0.080646 1.052795 -8.758916 0.139646 1.382503 -11.535906 0.000003 0.000000 0.000000 0.080938 1.054700 -8.774899 0.139264 1.380612 -11.519923 0.000000 -0.000000 -0.000000 0.683437 5.064129 -8.296652 0.133610 -2.674927 -12.020411 -0.000001 -0.000000 -0.000001 2.080133 14.739084 2.062846 0.000000 0.000000 0.000000 -38.227811 39.650959 63.883668 -0.000003 49.554395 -0.000001 33.231794 2.131664 3.145248 -7.602989 -2.522632 -16.074130 4.602791 -15.232106 -8.617082 -1.023803 -3.032439 -6.344316 0.000000 0.000000 -0.000000 0.672542 -2.988227 25.362769 0.151869 -1.448096 11.971991 -0.000001 0.000002 -0.000000 0.672536 -2.988217 25.362765 0.151869 -1.448092 11.971982 0.000002 -0.000000 0.000000 0.672543 -2.988227 25.362767 0.151868 -1.448097 11.971995 -0.000001 0.000000 0.000000 0.672542 -2.988228 25.362767 0.151871 -1.448097 11.971993 -0.000003 -0.000001 0.000001 -41.332699 20.064360 12.032906 55.115935 -1.684937 -0.011828 16.415656 -2.231370 -13.285378 -0.000005 0.000003 0.000006 0.000002 -0.000002 -0.000000 -47.958228 1.705688 -19.144155 24.000520 7.842205 1.087295 17.589646 20.458244 22.373881 -0.000002 0.000002 0.000000 -0.000000 -0.000002 -0.000000 
11.081838 186.102386 77.399849 2.862445 17.672824 0.925711 7.408430 -1.363473 -3.922638 14.253386 -2.029488 0.889713 0.000000 0.000000 0.000000 14.234365 -2.070371 1.095188 -2.973544 0.335323 -7.170161 -2.167511 -10.752429 12.661431 0.000001 0.000000 0.000000 -1.416794 10.842149 5.015825 0.000000 0.000000 0.000000 -97.509229 -56.558488 -108.357864 -0.047978 -89.118068 -0.047786 -12.155358 -4.424789 -0.433184 -3.500297 23.141374 9.972773 -2.408707 12.775394 10.381620 -3.572495 4.191430 6.966199 -0.000003 -0.000000 -0.000000 0.080919 1.054693 -8.774819 0.139257 1.380600 -11.519789 -0.000003 0.000000 0.000002 0.080622 1.052790 -8.758820 0.139641 1.382487 -11.535792 -0.000003 -0.000002 -0.000001 0.080920 1.054693 -8.774820 0.139257 1.380600 -11.519794 -0.000004 -0.000000 0.000001 0.683412 5.064125 -8.296568 0.133625 -2.674944 -12.020281 -0.000001 0.000001 0.000001 2.065502 14.495179 2.197902 0.000000 0.000000 0.000000 -38.516393 38.803937 64.754933 -0.000020 51.747074 0.000023 34.057598 1.236728 4.088625 -7.601777 -2.522975 -16.072122 4.602786 -15.232032 -8.617001 -1.023817 -3.032427 -6.344268 -0.000000 0.000001 0.000000 0.672537 -2.988196 25.362495 0.151848 -1.448090 11.971880 0.000001 0.000000 -0.000001 0.672538 -2.988196 25.362504 0.151846 -1.448088 11.971874 0.000002 0.000001 -0.000001 0.672535 -2.988196 25.362497 0.151845 -1.448089 11.971883 -0.000000 0.000000 0.000000 0.672538 -2.988198 25.362494 0.151843 -1.448085 11.971880 -0.000001 0.000001 0.000001 -39.704245 19.902232 11.582725 53.335486 -1.788236 -0.013078 16.861247 -2.447104 -13.966333 -0.000003 -0.000006 -0.000011 -0.000000 -0.000001 0.000002 -45.952229 0.942047 -18.912939 24.026606 7.593332 1.093548 18.867682 20.297440 21.108713 -0.000009 0.000001 -0.000004 0.000000 -0.000001 -0.000000 
11.226330 182.451996 80.125816 1.837755 17.251183 1.296395 7.391941 -1.202948 -3.869975 14.146505 -1.862276 0.698901 0.000000 0.000000 0.000000 14.127831 -1.903757 0.895219 -2.828155 0.249445 -6.858321 -1.528166 -10.704888 12.569926 0.000001 0.000000 -0.000000 -1.424557 10.926352 4.985065 0.000000 0.000000 0.000000 -95.634895 -56.829404 -106.432946 0.001903 -87.376595 0.001909 -12.856047 -3.694802 -1.384488 -3.500295 23.141255 9.972733 -2.408659 12.775385 10.381581 -3.572478 4.191403 6.966183 -0.000001 -0.000000 0.000000 0.080919 1.054691 -8.774747 0.139261 1.380589 -11.519731 -0.000002 -0.000001 0.000001 0.080618 1.052784 -8.758767 0.139644 1.382478 -11.535730 0.000000 0.000001 0.000001 0.080919 1.054690 -8.774753 0.139261 1.380588 -11.519732 -0.000002 0.000000 0.000000 0.683405 5.064113 -8.296501 0.133608 -2.674943 -12.020227 -0.000004 0.000001 0.000001 2.043263 14.224845 2.274367 0.000000 0.000000 0.000000 -38.443047 37.741361 65.784380 0.000001 54.704979 -0.000005 34.927094 0.112268 4.720973 -7.601332 -2.522881 -16.071126 4.602786 -15.232000 -8.616956 -1.023812 -3.032390 -6.344247 0.000000 -0.000001 0.000002 0.672530 -2.988178 25.362350 0.151842 -1.448063 11.971819 -0.000002 -0.000001 -0.000000 0.672526 -2.988175 25.362355 0.151846 -1.448080 11.971825 0.000001 -0.000001 0.000000 0.672530 -2.988174 25.362359 0.151839 -1.448067 11.971822 -0.000001 0.000001 -0.000001 0.672531 -2.988179 25.362352 0.151841 -1.448066 11.971820 -0.000003 -0.000001 0.000001 -37.937415 19.664603 11.087887 51.244088 -1.929233 -0.015894 17.167561 -2.638099 -14.724957 0.000015 0.000010 -0.000004 -0.000000 0.000003 -0.000001 -43.891571 0.074157 -18.596372 24.013246 7.375412 1.079000 20.110099 19.692919 19.821200 -0.000003 0.000008 -0.000002 0.000000 -0.000000 0.000000 
